<svg width="61" height="31" viewBox="0 0 61 31" fill="none" xmlns="http://www.w3.org/2000/svg">
<path d="M33.18 0.299999V30H27.555V14.52L27.87 5.835H27.78L19.545 30H14.46L6.27 5.835H6.18L6.495 14.52V30H0.87V0.299999H9.87L15.225 16.5L17.115 23.205H17.205L19.14 16.545L24.45 0.299999H33.18ZM60.5692 0.299999V19.065C60.5692 22.635 59.5642 25.425 57.5542 27.435C55.5442 29.445 52.6942 30.45 49.0042 30.45C46.3642 30.45 44.2192 29.97 42.5692 29.01C40.9192 28.05 39.7792 26.7 39.1492 24.96C38.5192 23.22 38.3992 21.225 38.7892 18.975L44.8192 17.895C44.4592 20.535 44.6242 22.44 45.3142 23.61C46.0042 24.78 47.2792 25.365 49.1392 25.365C51.0892 25.365 52.4392 24.765 53.1892 23.565C53.9692 22.365 54.3592 20.58 54.3592 18.21V0.299999H60.5692Z" fill="#B3BBE5"/>
</svg>
